<svg version="1.1" id="Layer_1" xmlns="http://www.w3.org/2000/svg" xmlns:xlink="http://www.w3.org/1999/xlink" x="0px" y="0px"
	 width="100%" viewBox="0 0 500 500" enable-background="new 0 0 500 500" xml:space="preserve">
<path fill="#000000" opacity="1.000000" stroke="none" 
	d="
M229.000000,501.000000 
	C152.666687,501.000000 76.833366,501.000000 1.000041,501.000000 
	C1.000027,334.333405 1.000027,167.666779 1.000014,1.000130 
	C167.666565,1.000087 334.333130,1.000087 500.999756,1.000043 
	C500.999847,167.666519 500.999847,334.333038 500.999939,500.999786 
	C410.500000,501.000000 320.000000,501.000000 229.000000,501.000000 
M179.393112,289.527374 
	C179.652695,288.336914 180.417114,286.980316 180.088928,285.983337 
	C178.140976,280.065643 166.722855,277.068268 161.143555,281.410645 
	C161.236755,283.256104 160.887222,285.273041 161.520935,286.909149 
	C162.632141,289.778015 164.346100,292.413422 165.068954,295.034149 
	C161.572601,295.588623 157.885117,297.050171 158.775925,300.894623 
	C159.177597,302.628143 163.539062,304.112701 166.268082,304.475525 
	C169.995804,304.971161 173.183731,301.404846 177.804276,302.330658 
	C181.269501,304.369537 184.543259,305.935699 188.841736,303.765808 
	C191.436584,302.455902 194.770035,302.609131 198.019745,302.657593 
	C199.423157,302.322083 200.826584,301.986603 202.229996,301.651093 
	C205.155762,302.867340 208.206268,303.307220 211.265915,303.384155 
	C214.611557,303.468292 217.965759,303.220917 221.315979,303.110077 
	C223.326050,303.043610 225.357529,303.121552 227.340256,302.849518 
	C230.255264,302.449554 233.398773,300.779663 235.978226,301.449127 
	C242.362762,303.106171 243.805023,303.232178 249.039780,299.524780 
	C245.901260,300.364868 241.792007,302.058197 239.733871,300.682617 
	C235.801788,298.054565 232.597839,298.948273 229.191650,300.410645 
	C222.749496,303.176483 221.038315,302.596008 218.381317,295.608490 
	C216.612244,297.024750 215.096069,298.587921 213.273514,299.598633 
	C211.475113,300.595978 209.242294,301.834534 207.420242,301.551178 
	C203.634720,300.962463 199.994904,299.436737 195.559586,298.083710 
	C194.024902,298.077972 191.990585,297.439178 191.047729,298.183319 
	C188.026657,300.567688 185.676086,299.917023 182.663559,298.103210 
	C181.235062,297.243134 178.787338,298.075836 176.151703,298.106079 
	C174.808182,298.194153 173.464661,298.282227 172.095474,297.556274 
	C171.733109,295.833801 171.370728,294.111328 171.007050,292.382660 
	C172.554062,292.037354 174.127121,291.686249 176.088791,291.237732 
	C176.622070,291.136322 177.155350,291.034912 178.244125,290.838806 
	C178.497223,290.574921 178.750320,290.311035 179.393112,289.527374 
M278.147766,300.998077 
	C268.293854,301.078430 259.831818,295.618408 261.059113,290.156647 
	C263.695404,290.769684 266.389984,291.195770 268.951080,292.031097 
	C275.480316,294.160583 281.937012,296.511475 288.449829,298.692871 
	C291.077698,299.573029 293.776276,300.242096 296.442688,301.007263 
	C296.646515,300.513214 296.850372,300.019165 297.054230,299.525116 
	C296.247467,298.509399 295.440735,297.493683 294.300232,296.057770 
	C296.577301,296.057770 298.223267,296.057770 299.957611,296.758820 
	C300.541443,298.696594 300.562561,301.603821 301.840546,302.345642 
	C303.774323,303.468079 306.723175,303.695587 308.984558,303.179993 
	C311.710205,302.558502 314.110474,299.677155 316.711792,303.511169 
	C317.104126,304.089417 318.853485,303.881653 319.961823,303.815338 
	C324.036255,303.571381 328.248596,302.433441 332.140198,303.131287 
	C337.160339,304.031403 340.336151,301.745087 344.519958,298.815308 
	C339.897949,300.475739 335.906647,304.673920 332.206940,299.837524 
	C329.954468,296.893036 328.483673,296.965363 326.008850,298.829742 
	C324.822601,299.723389 323.585999,300.776917 322.210388,301.132965 
	C320.627869,301.542572 318.211426,301.935486 317.354340,301.103058 
	C316.360870,300.138123 316.114258,297.646210 316.608856,296.175354 
	C316.935089,295.205078 319.090302,294.681274 320.517975,294.297516 
	C321.926056,293.919006 323.449188,293.968445 324.921844,293.830139 
	C324.899719,293.310303 324.877594,292.790497 324.855469,292.270691 
	C322.744141,292.070221 320.632782,291.869751 318.814514,291.697113 
	C318.432648,289.239868 318.095215,287.068756 317.757782,284.897644 
	C314.476105,290.046082 311.650208,294.380585 304.776886,291.092010 
	C304.776886,289.127930 304.776886,287.080658 304.776886,283.936646 
	C302.953430,286.107422 301.801392,287.381531 300.763519,288.742737 
	C299.793610,290.014740 298.944824,291.379150 297.440735,292.295319 
	C291.590302,291.103668 291.410156,290.628174 292.621277,284.628510 
	C293.126740,282.124542 292.937256,279.480316 293.063721,276.899841 
	C292.493896,276.673157 291.924072,276.446442 291.354248,276.219757 
	C288.654022,281.724548 285.953827,287.229340 283.227356,292.787628 
	C279.658997,291.834229 276.243164,290.935822 272.835571,290.007111 
	C269.433228,289.079926 266.082397,287.715363 262.623413,287.347687 
	C260.857971,287.160034 258.603210,288.398651 257.175323,289.671906 
	C256.545410,290.233582 256.865967,293.108276 257.710510,293.861389 
	C261.445221,297.191711 265.270020,300.571808 269.559723,303.084503 
	C273.452026,305.364532 277.884644,303.906006 279.641815,300.951569 
	C280.254852,300.502350 280.867889,300.053162 281.480957,299.603943 
	C281.179382,299.331665 280.877838,299.059357 280.576263,298.787079 
	C280.056793,299.531006 279.537323,300.274933 278.147766,300.998077 
M189.869263,213.513306 
	C198.653625,218.234283 207.710876,222.518570 216.150208,227.791748 
	C225.729614,233.777328 230.398804,242.967300 230.132935,254.370651 
	C230.022293,259.116577 229.497620,263.852844 229.141953,268.864746 
	C234.156403,268.864746 239.144058,269.020325 244.110153,268.761932 
	C245.451950,268.692047 247.254715,267.695343 247.955200,266.569763 
	C256.891113,252.210922 254.877670,227.742386 243.932983,214.820343 
	C237.075653,206.724091 228.003357,201.816910 218.757828,197.184692 
	C208.204193,191.897064 197.341003,187.186920 187.013168,181.498123 
	C170.168549,172.219742 164.492859,159.594788 167.710953,140.602173 
	C170.119339,126.388374 179.935028,118.077896 195.204163,117.325012 
	C209.642929,116.613068 218.590408,123.231079 222.046509,137.988571 
	C223.624878,144.728180 224.069962,151.733215 225.131348,159.352264 
	C228.550186,158.645966 232.215210,158.308838 235.576645,157.116165 
	C245.933136,153.441544 250.061920,143.136093 244.344467,133.739639 
	C241.685715,129.370117 237.694260,124.961617 233.229019,122.683662 
	C210.008865,110.837837 186.502975,111.050095 163.468246,123.414597 
	C156.741333,127.025475 151.776672,132.836594 148.793427,139.968140 
	C141.750046,156.805527 141.545624,182.684982 163.360794,198.184769 
	C171.442291,203.926697 180.560013,208.210159 189.869263,213.513306 
M309.916290,214.263062 
	C303.516479,232.345703 297.116699,250.428360 290.584991,268.883698 
	C291.922699,268.778137 292.775513,268.875122 292.847382,268.681824 
	C299.982391,249.487518 307.058319,230.271240 314.068542,211.244644 
	C320.358887,229.221603 326.604156,247.192444 332.998047,265.110260 
	C333.511292,266.548615 335.011810,268.661041 336.114929,268.699463 
	C344.688202,268.998199 353.276550,268.864471 362.504272,268.864471 
	C352.694366,242.791336 343.122986,217.352234 333.533020,191.863693 
	C328.958679,191.863693 324.783112,191.634995 320.658905,191.994781 
	C319.318298,192.111740 317.460114,193.504913 316.954498,194.762863 
	C314.475555,200.929764 312.372864,207.247879 309.916290,214.263062 
M372.376953,317.381714 
	C365.785645,317.381714 359.194366,317.381714 352.027954,317.381714 
	C353.354340,321.104736 354.506683,324.173370 355.542786,327.280762 
	C358.008301,334.675018 360.922729,341.968231 362.712769,349.525665 
	C364.579132,357.405243 361.320007,361.351044 353.463654,362.066803 
	C349.827148,362.398132 346.146973,362.225708 342.497528,362.455597 
	C341.545624,362.515533 340.634827,363.227570 339.705139,363.640106 
	C339.829407,363.952484 339.953644,364.264832 340.077881,364.577209 
	C363.479431,364.577209 386.880981,364.577209 411.287415,364.577209 
	C410.011749,363.393494 409.470856,362.470245 408.975250,362.493927 
	C399.117767,362.965210 395.447327,356.185394 392.522522,348.555115 
	C389.431335,340.490509 385.948517,332.535217 383.514740,324.273529 
	C381.841919,318.594971 379.036377,316.276428 372.376953,317.381714 
M162.213623,251.908356 
	C162.003159,248.130951 161.792694,244.353546 161.585175,240.629181 
	C145.663162,239.248657 136.704819,253.386032 143.649216,268.876190 
	C147.164291,268.876190 150.805222,268.876190 154.446136,268.876190 
	C158.039856,268.876190 161.633575,268.876190 165.213959,268.876190 
	C164.193771,263.227722 163.252502,258.016174 162.213623,251.908356 
M266.786591,356.287720 
	C266.728882,352.876678 265.969543,349.291473 266.763763,346.091919 
	C268.278992,339.988037 270.688477,334.106903 272.710236,328.127686 
	C273.887421,324.646362 275.032715,321.154236 276.192352,317.666931 
	C275.654968,317.411560 275.117615,317.156189 274.580231,316.900787 
	C273.700073,318.381256 272.565308,319.768280 271.982208,321.357697 
	C268.834106,329.938782 266.027130,338.649506 262.715698,347.165100 
	C257.910675,359.521698 253.818024,362.151123 240.667755,362.390381 
	C239.156921,362.417847 237.655655,362.972229 236.149948,363.282288 
	C236.233017,363.719727 236.316086,364.157166 236.399139,364.594604 
	C256.089386,364.594604 275.779663,364.594604 295.469910,364.594604 
	C295.544525,364.159088 295.619141,363.723572 295.693756,363.288055 
	C294.350525,362.976166 293.017456,362.457489 291.662109,362.390625 
	C287.341339,362.177582 282.881226,362.741852 278.723846,361.848114 
	C274.705139,360.984192 270.994965,358.684998 266.786591,356.287720 
z"/>
<path fill="#FBFBFB" opacity="1.000000" stroke="none" 
	d="
M189.537201,213.336029 
	C180.560013,208.210159 171.442291,203.926697 163.360794,198.184769 
	C141.545624,182.684982 141.750046,156.805527 148.793427,139.968140 
	C151.776672,132.836594 156.741333,127.025475 163.468246,123.414597 
	C186.502975,111.050095 210.008865,110.837837 233.229019,122.683662 
	C237.694260,124.961617 241.685715,129.370117 244.344467,133.739639 
	C250.061920,143.136093 245.933136,153.441544 235.576645,157.116165 
	C232.215210,158.308838 228.550186,158.645966 225.131348,159.352264 
	C224.069962,151.733215 223.624878,144.728180 222.046509,137.988571 
	C218.590408,123.231079 209.642929,116.613068 195.204163,117.325012 
	C179.935028,118.077896 170.119339,126.388374 167.710953,140.602173 
	C164.492859,159.594788 170.168549,172.219742 187.013168,181.498123 
	C197.341003,187.186920 208.204193,191.897064 218.757828,197.184692 
	C228.003357,201.816910 237.075653,206.724091 243.932983,214.820343 
	C254.877670,227.742386 256.891113,252.210922 247.955200,266.569763 
	C247.254715,267.695343 245.451950,268.692047 244.110153,268.761932 
	C239.144058,269.020325 234.156403,268.864746 229.141953,268.864746 
	C229.497620,263.852844 230.022293,259.116577 230.132935,254.370651 
	C230.398804,242.967300 225.729614,233.777328 216.150208,227.791748 
	C207.710876,222.518570 198.653625,218.234283 189.537201,213.336029 
z"/>
<path fill="#EEEFEF" opacity="1.000000" stroke="none" 
	d="
M310.026794,213.887817 
	C312.372864,207.247879 314.475555,200.929764 316.954498,194.762863 
	C317.460114,193.504913 319.318298,192.111740 320.658905,191.994781 
	C324.783112,191.634995 328.958679,191.863693 333.533020,191.863693 
	C343.122986,217.352234 352.694366,242.791336 362.504272,268.864471 
	C353.276550,268.864471 344.688202,268.998199 336.114929,268.699463 
	C335.011810,268.661041 333.511292,266.548615 332.998047,265.110260 
	C326.604156,247.192444 320.358887,229.221603 314.068542,211.244644 
	C307.058319,230.271240 299.982391,249.487518 292.847382,268.681824 
	C292.775513,268.875122 291.922699,268.778137 290.584991,268.883698 
	C297.116699,250.428360 303.516479,232.345703 310.026794,213.887817 
z"/>
<path fill="#EEEFEF" opacity="1.000000" stroke="none" 
	d="
M372.852814,317.381714 
	C379.036377,316.276428 381.841919,318.594971 383.514740,324.273529 
	C385.948517,332.535217 389.431335,340.490509 392.522522,348.555115 
	C395.447327,356.185394 399.117767,362.965210 408.975250,362.493927 
	C409.470856,362.470245 410.011749,363.393494 411.287415,364.577209 
	C386.880981,364.577209 363.479431,364.577209 340.077881,364.577209 
	C339.953644,364.264832 339.829407,363.952484 339.705139,363.640106 
	C340.634827,363.227570 341.545624,362.515533 342.497528,362.455597 
	C346.146973,362.225708 349.827148,362.398132 353.463654,362.066803 
	C361.320007,361.351044 364.579132,357.405243 362.712769,349.525665 
	C360.922729,341.968231 358.008301,334.675018 355.542786,327.280762 
	C354.506683,324.173370 353.354340,321.104736 352.027954,317.381714 
	C359.194366,317.381714 365.785645,317.381714 372.852814,317.381714 
z"/>
<path fill="#F6F7F8" opacity="1.000000" stroke="none" 
	d="
M162.262421,252.356476 
	C163.252502,258.016174 164.193771,263.227722 165.213959,268.876190 
	C161.633575,268.876190 158.039856,268.876190 154.446136,268.876190 
	C150.805222,268.876190 147.164291,268.876190 143.649216,268.876190 
	C136.704819,253.386032 145.663162,239.248657 161.585175,240.629181 
	C161.792694,244.353546 162.003159,248.130951 162.262421,252.356476 
z"/>
<path fill="#E1E2E4" opacity="1.000000" stroke="none" 
	d="
M266.967926,356.652008 
	C270.994965,358.684998 274.705139,360.984192 278.723846,361.848114 
	C282.881226,362.741852 287.341339,362.177582 291.662109,362.390625 
	C293.017456,362.457489 294.350525,362.976166 295.693756,363.288055 
	C295.619141,363.723572 295.544525,364.159088 295.469910,364.594604 
	C275.779663,364.594604 256.089386,364.594604 236.399139,364.594604 
	C236.316086,364.157166 236.233017,363.719727 236.149948,363.282288 
	C237.655655,362.972229 239.156921,362.417847 240.667755,362.390381 
	C253.818024,362.151123 257.910675,359.521698 262.715698,347.165100 
	C266.027130,338.649506 268.834106,329.938782 271.982208,321.357697 
	C272.565308,319.768280 273.700073,318.381256 274.580231,316.900787 
	C275.117615,317.156189 275.654968,317.411560 276.192352,317.666931 
	C275.032715,321.154236 273.887421,324.646362 272.710236,328.127686 
	C270.688477,334.106903 268.278992,339.988037 266.763763,346.091919 
	C265.969543,349.291473 266.728882,352.876678 266.967926,356.652008 
z"/>
<path fill="#0C95B2" opacity="1.000000" stroke="none" 
	d="
M298.042725,292.702911 
	C298.944824,291.379150 299.793610,290.014740 300.763519,288.742737 
	C301.801392,287.381531 302.953430,286.107422 304.776886,283.936646 
	C304.776886,287.080658 304.776886,289.127930 304.776886,291.092010 
	C311.650208,294.380585 314.476105,290.046082 317.757782,284.897644 
	C318.095215,287.068756 318.432648,289.239868 318.814514,291.697113 
	C320.632782,291.869751 322.744141,292.070221 324.855469,292.270691 
	C324.877594,292.790497 324.899719,293.310303 324.921844,293.830139 
	C323.449188,293.968445 321.926056,293.919006 320.517975,294.297516 
	C319.090302,294.681274 316.935089,295.205078 316.608856,296.175354 
	C316.114258,297.646210 316.360870,300.138123 317.354340,301.103058 
	C318.211426,301.935486 320.627869,301.542572 322.210388,301.132965 
	C323.585999,300.776917 324.822601,299.723389 326.008850,298.829742 
	C328.483673,296.965363 329.954468,296.893036 332.206940,299.837524 
	C335.906647,304.673920 339.897949,300.475739 344.519958,298.815308 
	C340.336151,301.745087 337.160339,304.031403 332.140198,303.131287 
	C328.248596,302.433441 324.036255,303.571381 319.961823,303.815338 
	C318.853485,303.881653 317.104126,304.089417 316.711792,303.511169 
	C314.110474,299.677155 311.710205,302.558502 308.984558,303.179993 
	C306.723175,303.695587 303.774323,303.468079 301.840546,302.345642 
	C300.562561,301.603821 300.541443,298.696594 299.940277,296.036102 
	C297.547699,294.744598 295.172455,294.175842 291.734711,293.352631 
	C294.579285,293.059631 296.311035,292.881287 298.042725,292.702911 
M306.901031,302.342316 
	C310.143890,300.702637 314.271973,299.757080 313.241211,294.329437 
	C311.196350,294.421783 309.274078,294.960693 307.650665,294.483398 
	C304.697388,293.614960 302.670624,293.863159 302.169220,297.248352 
	C301.719482,300.284637 302.528625,302.576660 306.901031,302.342316 
z"/>
<path fill="#0A263D" opacity="1.000000" stroke="none" 
	d="
M297.741760,292.499115 
	C296.311035,292.881287 294.579285,293.059631 291.734711,293.352631 
	C295.172455,294.175842 297.547699,294.744598 299.896118,295.685577 
	C298.223267,296.057770 296.577301,296.057770 294.300232,296.057770 
	C295.440735,297.493683 296.247467,298.509399 297.054230,299.525116 
	C296.850372,300.019165 296.646515,300.513214 296.442688,301.007263 
	C293.776276,300.242096 291.077698,299.573029 288.449829,298.692871 
	C281.937012,296.511475 275.480316,294.160583 268.951080,292.031097 
	C266.389984,291.195770 263.695404,290.769684 261.059113,290.156647 
	C259.831818,295.618408 268.293854,301.078430 278.574188,300.999390 
	C279.000610,301.000702 278.982697,300.983429 278.982697,300.983429 
	C277.884644,303.906006 273.452026,305.364532 269.559723,303.084503 
	C265.270020,300.571808 261.445221,297.191711 257.710510,293.861389 
	C256.865967,293.108276 256.545410,290.233582 257.175323,289.671906 
	C258.603210,288.398651 260.857971,287.160034 262.623413,287.347687 
	C266.082397,287.715363 269.433228,289.079926 272.835571,290.007111 
	C276.243164,290.935822 279.658997,291.834229 283.227356,292.787628 
	C285.953827,287.229340 288.654022,281.724548 291.354248,276.219757 
	C291.924072,276.446442 292.493896,276.673157 293.063721,276.899841 
	C292.937256,279.480316 293.126740,282.124542 292.621277,284.628510 
	C291.410156,290.628174 291.590302,291.103668 297.741760,292.499115 
z"/>
<path fill="#0C95B2" opacity="1.000000" stroke="none" 
	d="
M196.295197,298.296143 
	C199.994904,299.436737 203.634720,300.962463 207.420242,301.551178 
	C209.242294,301.834534 211.475113,300.595978 213.273514,299.598633 
	C215.096069,298.587921 216.612244,297.024750 218.381317,295.608490 
	C221.038315,302.596008 222.749496,303.176483 229.191650,300.410645 
	C232.597839,298.948273 235.801788,298.054565 239.733871,300.682617 
	C241.792007,302.058197 245.901260,300.364868 249.039780,299.524780 
	C243.805023,303.232178 242.362762,303.106171 235.978226,301.449127 
	C233.398773,300.779663 230.255264,302.449554 227.340256,302.849518 
	C225.357529,303.121552 223.326050,303.043610 221.315979,303.110077 
	C217.965759,303.220917 214.611557,303.468292 211.265915,303.384155 
	C208.206268,303.307220 205.155762,302.867340 202.229996,301.651093 
	C200.826584,301.986603 199.423157,302.322083 197.936768,302.012878 
	C196.449295,300.735474 195.044815,300.102753 193.556473,299.432251 
	C194.542191,299.023346 195.418701,298.659760 196.295197,298.296143 
z"/>
<path fill="#05111C" opacity="1.000000" stroke="none" 
	d="
M175.700180,291.335144 
	C174.127121,291.686249 172.554062,292.037354 171.007050,292.382660 
	C171.370728,294.111328 171.733109,295.833801 172.092621,298.174866 
	C171.924438,299.082428 171.678726,299.192932 171.003357,298.996521 
	C169.032303,297.610443 167.410507,296.352783 165.826431,295.094666 
	C165.864136,295.094177 165.807571,295.146606 165.807571,295.146606 
	C164.346100,292.413422 162.632141,289.778015 161.520935,286.909149 
	C160.887222,285.273041 161.236755,283.256104 161.898560,281.277832 
	C169.210281,280.123535 174.903992,281.316254 179.679840,287.910522 
	C176.348831,288.645844 173.838776,289.199921 171.328720,289.754028 
	C171.317734,290.009918 171.306763,290.265839 171.295792,290.521759 
	C172.763916,290.792908 174.232056,291.064026 175.700180,291.335144 
z"/>
<path fill="#0A263D" opacity="1.000000" stroke="none" 
	d="
M195.927399,298.189941 
	C195.418701,298.659760 194.542191,299.023346 193.556473,299.432251 
	C195.044815,300.102753 196.449295,300.735474 197.812698,301.736572 
	C194.770035,302.609131 191.436584,302.455902 188.841736,303.765808 
	C184.543259,305.935699 181.269501,304.369537 177.212189,302.013794 
	C176.680511,300.511810 176.740936,299.326721 176.801361,298.141632 
	C178.787338,298.075836 181.235062,297.243134 182.663559,298.103210 
	C185.676086,299.917023 188.026657,300.567688 191.047729,298.183319 
	C191.990585,297.439178 194.024902,298.077972 195.927399,298.189941 
z"/>
<path fill="#0C95B2" opacity="1.000000" stroke="none" 
	d="
M176.476532,298.123840 
	C176.740936,299.326721 176.680511,300.511810 176.903931,301.849121 
	C173.183731,301.404846 169.995804,304.971161 166.268082,304.475525 
	C163.539062,304.112701 159.177597,302.628143 158.775925,300.894623 
	C157.885117,297.050171 161.572601,295.588623 165.438263,295.090393 
	C165.807571,295.146606 165.864136,295.094177 165.727570,295.414612 
	C164.494843,296.692078 163.119614,297.480377 162.402481,298.666534 
	C161.939072,299.433044 162.004623,301.279816 162.582535,301.784698 
	C165.191757,304.064240 169.673141,302.592987 171.352615,299.124939 
	C171.678726,299.192932 171.924438,299.082428 172.105438,298.581848 
	C173.464661,298.282227 174.808182,298.194153 176.476532,298.123840 
z"/>
<path fill="#0C95B2" opacity="1.000000" stroke="none" 
	d="
M175.894485,291.286438 
	C174.232056,291.064026 172.763916,290.792908 171.295792,290.521759 
	C171.306763,290.265839 171.317734,290.009918 171.328720,289.754028 
	C173.838776,289.199921 176.348831,288.645844 179.679840,287.910522 
	C174.903992,281.316254 169.210281,280.123535 162.185425,281.087280 
	C166.722855,277.068268 178.140976,280.065643 180.088928,285.983337 
	C180.417114,286.980316 179.652695,288.336914 178.918274,289.841858 
	C178.191818,290.415405 177.940231,290.674469 177.688629,290.933502 
	C177.155350,291.034912 176.622070,291.136322 175.894485,291.286438 
z"/>
<path fill="#0A263D" opacity="1.000000" stroke="none" 
	d="
M279.009216,301.009766 
	C279.537323,300.274933 280.056793,299.531006 280.576263,298.787079 
	C280.877838,299.059357 281.179382,299.331665 281.480957,299.603943 
	C280.867889,300.053162 280.254852,300.502350 279.312256,300.967499 
	C278.982697,300.983429 279.000610,301.000702 279.009216,301.009766 
z"/>
<path fill="#05111C" opacity="1.000000" stroke="none" 
	d="
M177.966385,290.886169 
	C177.940231,290.674469 178.191818,290.415405 178.723419,290.101746 
	C178.750320,290.311035 178.497223,290.574921 177.966385,290.886169 
z"/>
<path fill="#05111C" opacity="1.000000" stroke="none" 
	d="
M306.555115,302.465698 
	C302.528625,302.576660 301.719482,300.284637 302.169220,297.248352 
	C302.670624,293.863159 304.697388,293.614960 307.650665,294.483398 
	C309.274078,294.960693 311.196350,294.421783 313.241211,294.329437 
	C314.271973,299.757080 310.143890,300.702637 306.555115,302.465698 
z"/>
<path fill="#000000" opacity="1.000000" stroke="none" 
	d="
M171.003357,298.996521 
	C169.673141,302.592987 165.191757,304.064240 162.582535,301.784698 
	C162.004623,301.279816 161.939072,299.433044 162.402481,298.666534 
	C163.119614,297.480377 164.494843,296.692078 165.689865,295.415100 
	C167.410507,296.352783 169.032303,297.610443 171.003357,298.996521 
z"/>
</svg>